{"title":"BBC.Ocean.Giants.S01E01.Giant.Lives.x264.aac.mp4.720p.subtitles-","uid":6606427,"size":1087298113,"categoryP":"video","categoryS":"hd___tv_shows","magnet":"?xt=urn:btih:946fefe8f6c91016c2da9512a8fc5a0bcf8785d6&amp;dn=BBC.Ocean.Giants.S01E01.Giant.Lives.x264.aac.mp4.720p.subtitles-&amp;tr=udp%3A%2F%2Ftracker.openbittorrent.com%3A80&amp;tr=udp%3A%2F%2Fopen.demonii.com%3A1337&amp;tr=udp%3A%2F%2Ftracker.coppersurfer.tk%3A6969&amp;tr=udp%3A%2F%2Fexodus.desync.com%3A6969","seeders":0,"leechers":1,"uploader":"aularon","files":-1,"time":1313416465,"description":"- - -\nSynopsis\n- - -\n\nGround-breaking documentary granting a unique and privileged access into the magical world of whales and dolphins, uncovering the secrets of their intimate lives as never before.\n\nThis episode explores the intimate details of the largest animals that have ever lived on our planet- the great whales. From the balmy waters of the Indian Ocean to the freezing seas of the Arctic, two daring underwater cameramen - Doug Allan, Planet Earth\\'s polar specialist, and Didier Noirot, Cousteau\\'s front-line cameraman - come face-to-face with fighting humpback whales and two-hundred-ton feeding blue whales.\n\nTeaming up with top whale scientists, Giant Lives discovers why southern right whales possess a pair of one-ton testicles, why the arctic bowhead can live to over two hundred years old, and why size truly matters in the world of whales.\n\n\n- - -\nURL\n- - -\n  &lt;a href=&quot;\nhttp://www.bbc.co.uk/programmes/b013q50m&quot; rel=&quot;nofollow&quot; target=&quot;_NEW&quot;&gt;\nhttp://www.bbc.co.uk/programmes/b013q50m&lt;/a&gt;\n\n\n- - -\nTechnical Details\n- - -\nGeneral\nComplete name                    : BBC.Ocean.Giants.S01E01.Giant.Lives/Ocean_Giants_-_1._Giant_Lives_b013q50m_default.mp4\nFormat                           : MPEG-4\nFormat profile                   : Base Media\nCodec ID                         : isom\nFile size                        : 1.01 GiB\nDuration                         : 59mn 3s\nOverall bit rate                 : 2 455 Kbps\nMovie name                       : Ocean Giants: Giant Lives\nAlbum                            : Ocean Giants\nTrack name/Position              : 1\nTrack name/Total                 : 0\nPerformer                        : Ocean Giants\nGenre                            : Factual,Science &amp; Nature\nRecorded date                    : 2011-08-14T21:00:00+01:00\nWriting application              : Lavf53.6.0\nCover                            : Yes\nComment                          : Recorded using get_iplayer, by Aularon.\nrtng                             : 2\nstik                             : 1\ndesc                             : Documentary granting a unique and privileged access into the magical world of whales and dolphins, uncovering the secrets of their intimate lives as never before.\ntvnn                             : BBC One\ntvsh                             : Ocean Giants\ntven                             : b013q50m\ncatg                             : Factual,Science &amp; Nature\ntves                             : 1\n\nVideo\nID                               : 1\nFormat                           : AVC\nFormat/Info                      : Advanced Video Codec\nFormat profile                   : &lt;a class=&quot;__cf_email__&quot; href=&quot;/cdn-cgi/l/email-protection&quot; data-cfemail=&quot;82caebe5eac2ceb6acb3&quot;&gt;[email&amp;#160;protected]&lt;/a&gt;&lt;script cf-hash='f9e31' type=&quot;text/javascript&quot;&gt;\n/* &lt;![CDATA[ */!function(){try{var t=&quot;currentScript&quot;in document?document.currentScript:function(){for(var t=document.getElementsByTagName(&quot;script&quot;),e=t.length;e--;)if(t[e].getAttribute(&quot;cf-hash&quot;))return t[e]}();if(t&amp;&amp;t.previousSibling){var e,r,n,i,c=t.previousSibling,a=c.getAttribute(&quot;data-cfemail&quot;);if(a){for(e=&quot;&quot;,r=parseInt(a.substr(0,2),16),n=2;a.length-n;n+=2)i=parseInt(a.substr(n,2),16)^r,e+=String.fromCharCode(i);e=document.createTextNode(e),c.parentNode.replaceChild(e,c)}}}catch(u){}}();/* ]]&gt; */&lt;/script&gt;\nFormat settings, CABAC           : Yes\nFormat settings, ReFrames        : 6 frames\nCodec ID                         : avc1\nCodec ID/Info                    : Advanced Video Coding\nDuration                         : 59mn 3s\nBit rate mode                    : Variable\nBit rate                         : 2 354 Kbps\nMaximum bit rate                 : 3 500 Kbps\nWidth                            : 1 280 pixels\nHeight                           : 720 pixels\nDisplay aspect ratio             : 16:9\nFrame rate mode                  : Constant\nFrame rate                       : 25.000 fps\nStandard                         : PAL\nColor space                      : YUV\nChroma subsampling               : 4:2:0\nBit depth                        : 8 bits\nScan type                        : Progressive\nBits/(Pixel*Frame)               : 0.102\nStream size                      : 994 MiB (96%)\n\nAudio\nID                               : 2\nFormat                           : AAC\nFormat/Info                      : Advanced Audio Codec\nFormat profile                   : HE-AAC / LC\nCodec ID                         : 40\nDuration                         : 59mn 3s\nBit rate mode                    : Constant\nBit rate                         : 96.0 Kbps\nChannel(s)                       : 2 channels\nChannel positions                : Front: L R\nSampling rate                    : 48.0 KHz / 24.0 KHz\nCompression mode                 : Lossy\nStream size                      : 40.0 MiB (4%)\n","torrent":{"xt":"urn:btih:946fefe8f6c91016c2da9512a8fc5a0bcf8785d6","amp;dn":"BBC.Ocean.Giants.S01E01.Giant.Lives.x264.aac.mp4.720p.subtitles-","amp;tr":["udp%3A%2F%2Ftracker.openbittorrent.com%3A80","udp%3A%2F%2Fopen.demonii.com%3A1337","udp%3A%2F%2Ftracker.coppersurfer.tk%3A6969","udp%3A%2F%2Fexodus.desync.com%3A6969"],"infoHash":"946fefe8f6c91016c2da9512a8fc5a0bcf8785d6","infoHashBuffer":{"type":"Buffer","data":[148,111,239,232,246,201,16,22,194,218,149,18,168,252,90,11,207,135,133,214]},"announce":[],"urlList":[]}}